<?xml version="1.0" encoding="UTF-8" standalone="no"?>
<svg xmlns:dc="http://purl.org/dc/elements/1.1/" xmlns:cc="http://creativecommons.org/ns#" xmlns:rdf="http://www.w3.org/1999/02/22-rdf-syntax-ns#" xmlns:svg="http://www.w3.org/2000/svg" xmlns="http://www.w3.org/2000/svg" xmlns:sodipodi="http://sodipodi.sourceforge.net/DTD/sodipodi-0.dtd" xmlns:inkscape="http://www.inkscape.org/namespaces/inkscape" id="svg8" version="1.1" viewBox="0 0 16.933333 16.933333" height="64" width="64" sodipodi:docname="contentdroplets-book-pdf-link-icon.svg" inkscape:version="0.92.5 (2060ec1f9f, 2020-04-08)">
  <sodipodi:namedview pagecolor="#ffffff" bordercolor="#666666" borderopacity="1" objecttolerance="10" gridtolerance="10" guidetolerance="10" inkscape:pageopacity="0" inkscape:pageshadow="2" inkscape:window-width="1920" inkscape:window-height="1009" id="namedview21" showgrid="false" inkscape:zoom="10.429825" inkscape:cx="4.9667411" inkscape:cy="41.217891" inkscape:window-x="0" inkscape:window-y="0" inkscape:window-maximized="1" inkscape:current-layer="g960" showguides="true" inkscape:guide-bbox="true">
    <sodipodi:guide position="8.4666665,8.897175" orientation="1,0" id="guide870" inkscape:locked="false" inkscape:label="" inkscape:color="rgb(0,0,255)" />
    <sodipodi:guide position="-14.888418,5.0943502" orientation="0,1" id="guide872" inkscape:locked="false" inkscape:label="" inkscape:color="rgb(0,0,255)" />
  </sodipodi:namedview>
  <defs id="defs2">
    <marker style="overflow:visible" id="marker1178" refX="0.0" refY="0.0" orient="auto">
      <path transform="scale(0.8) translate(12.5,0)" style="fill-rule:evenodd;stroke:black;stroke-width:1pt;stroke-opacity:1" d="M 0.0,0.0 L 5.0,-5.0 L -12.5,0.0 L 5.0,5.0 L 0.0,0.0 z " id="path1176" />
    </marker>
    <marker style="overflow:visible" id="Arrow1Lstart" refX="0.0" refY="0.0" orient="auto">
      <path transform="scale(0.8) translate(12.5,0)" style="fill-rule:evenodd;stroke:black;stroke-width:1pt;stroke-opacity:1" d="M 0.0,0.0 L 5.0,-5.0 L -12.5,0.0 L 5.0,5.0 L 0.0,0.0 z " id="path900" />
    </marker>
  </defs>
  <metadata id="metadata5">
    <rdf:RDF>
      <cc:Work rdf:about="">
        <dc:format>image/svg+xml</dc:format>
        <dc:type rdf:resource="http://purl.org/dc/dcmitype/StillImage" />
        <dc:title />
      </cc:Work>
    </rdf:RDF>
  </metadata>
  <g transform="translate(0,-280.06666)" id="layer1" style="fill:none;fill-opacity:1;stroke:#00897b;stroke-opacity:1">
    <path id="path886" d="M 2.4722431,287.8126 Z" style="fill:none;stroke:#00897b;stroke-width:0.26458332px;stroke-linecap:butt;stroke-linejoin:miter;stroke-opacity:1;fill-opacity:1" />
    <g id="g960" transform="translate(20.181086,5.0444464)" style="stroke:#00897b;stroke-opacity:1">
      <rect style="opacity:1;fill:white;fill-opacity:1;stroke:none;stroke-width:0.47624999;stroke-linecap:round;stroke-linejoin:miter;stroke-miterlimit:4;stroke-dasharray:none;stroke-dashoffset:0;stroke-opacity:0.94117647;paint-order:fill markers stroke" id="rect866" width="8.8426447" height="11.913706" x="-16.586134" y="277.52579" rx="0.06614583" ry="0.06614583" />
      <path id="rect899" d="m -15.498305,277.37598 h 8.7895476 v 10.72683 h -8.7895476 z" style="opacity:1;fill:white;fill-opacity:1;stroke:#00897b;stroke-width:0.52916664;stroke-linecap:round;stroke-linejoin:round;stroke-miterlimit:4;stroke-dasharray:none;stroke-dashoffset:0;stroke-opacity:1;paint-order:markers fill stroke" inkscape:connector-curvature="0" />
      <path inkscape:connector-curvature="0" id="path901" d="m -15.415859,288.15093 c 0,0 -2.908817,0.83353 -0.07655,1.45867" style="fill:none;stroke:#00897b;stroke-width:0.52916664;stroke-linecap:round;stroke-linejoin:miter;stroke-miterlimit:4;stroke-dasharray:none;stroke-opacity:1" />
      <path inkscape:connector-curvature="0" id="path903" d="m -16.753935,288.92795 v -10.6192 c 0,0 -0.108749,-1.04041 1.268733,-0.93278" style="fill:none;stroke:#00897b;stroke-width:0.52916664;stroke-linecap:round;stroke-linejoin:miter;stroke-miterlimit:4;stroke-dasharray:none;stroke-opacity:1" />
      <path inkscape:connector-curvature="0" id="path905" d="m -15.570055,289.6096 h 8.8971737" style="fill:none;stroke:#00897b;stroke-width:0.52916664;stroke-linecap:round;stroke-linejoin:miter;stroke-miterlimit:4;stroke-dasharray:none;stroke-opacity:1" />
      <path inkscape:connector-curvature="0" id="path901-5" d="m -6.7047135,288.22889 c 0,0 -2.7354968,0.78386 -0.071985,1.37175" style="fill:none;fill-opacity:1;stroke:#00897b;stroke-width:0.5291667;stroke-linecap:round;stroke-linejoin:miter;stroke-miterlimit:4;stroke-dasharray:none;stroke-opacity:1" />
    </g>
    <path inkscape:connector-curvature="0" class="st2" d="m 10.318748,288.4365 c 0.238125,-0.0265 0.47625,-0.0529 0.714375,-0.0529 0.608542,0 0.978958,0.10584 1.084792,0.29105 0.05292,0.10583 0.07937,0.21166 0,0.3175 v 0 0 0 c -0.02646,0.15875 -0.15875,0.23812 -0.423334,0.23812 -0.211666,0 -0.449791,-0.0265 -0.714375,-0.10583 -0.264583,-0.0794 -0.529166,-0.18521 -0.79375,-0.3175 -0.9260405,0.10583 -1.7197905,0.26458 -2.4341655,0.50271 -0.635,1.08479 -1.1377086,1.61395 -1.5081253,1.61395 -0.052917,0 -0.1058333,-0.0264 -0.1852083,-0.0529 l -0.1322917,-0.0794 c 0,0 -0.026458,-0.0265 -0.052917,-0.0265 -0.026458,-0.0529 -0.052917,-0.10583 -0.026458,-0.21166 0.026458,-0.15875 0.15875,-0.34396 0.3439583,-0.58209 0.1852084,-0.21166 0.47625,-0.39687 0.820208,-0.58208 0.05292,-0.0265 0.105834,-0.0265 0.132292,0.0529 0.02646,0 0.02646,0.0265 0.02646,0.0265 0.211667,-0.34396 0.423333,-0.7673 0.661458,-1.21709 0.291042,-0.55562 0.502709,-1.08479 0.635,-1.61396 -0.105833,-0.34395 -0.15875,-0.66145 -0.185208,-1.00541 -0.02646,-0.3175 -0.02646,-0.58209 0.02646,-0.76729 0.05292,-0.15875 0.132292,-0.23813 0.264583,-0.23813 h 0.132292 c 0.105833,0 0.15875,0.0265 0.211667,0.0794 0.07937,0.0794 0.07937,0.23812 0.05292,0.42333 0,0.0265 -0.02646,0.0529 -0.02646,0.0529 v 0.0529 0.21167 c 0,0.50271 -0.02646,0.89958 -0.07938,1.19062 0.238125,0.68792 0.529166,1.16417 0.8995827,1.48167 0.15875,0.0794 0.3439578,0.21167 0.5556248,0.3175 z m -4.1010411,2.2225 c 0.2116666,-0.10583 0.5027083,-0.42333 0.8466666,-0.97896 -0.211667,0.15875 -0.396875,0.34396 -0.5291666,0.52917 -0.1322917,0.18521 -0.2645834,0.3175 -0.3175,0.44979 z m 3.4660416,-2.11667 c -0.02646,0 -0.05292,-0.0265 -0.07938,-0.0529 -0.05292,-0.0265 -0.07937,-0.0529 -0.105833,-0.0794 -0.3175,-0.29104 -0.582084,-0.635 -0.79375,-1.08479 -0.105834,0.34396 -0.264584,0.76729 -0.502709,1.21708 -0.132291,0.23813 -0.211666,0.39688 -0.291041,0.50271 0.555625,-0.21166 1.137708,-0.39687 1.772708,-0.50271 z m -1.005417,-2.77812 c 0,-0.0265 0.02646,-0.10583 0.05292,-0.26458 0,-0.0265 0.02646,-0.10584 0.05292,-0.26459 0,-0.0265 0.02646,-0.0265 0.02646,-0.0529 v 0 0 c 0,-0.10584 -0.02646,-0.15875 -0.07938,-0.23813 v 0 0 c -0.105833,0.18521 -0.105833,0.44979 -0.05292,0.82021 z m 2.3547915,3.04271 c 0.3175,0.10583 0.582083,0.18521 0.767292,0.18521 h 0.105833 c 0,0 0,-0.0265 -0.02646,-0.0265 -0.05292,-0.13229 -0.343958,-0.15875 -0.846667,-0.15875 z" id="path8" style="fill:#bd1d1d;fill-opacity:1;stroke:none;stroke-width:0.26458332;stroke-opacity:1" sodipodi:nodetypes="cscccccscccsccccccccccccssccccsccccccscccccccccscccccccccscscccc" />
  </g>
  <style type="text/css" id="style817">
	.st0{fill:#FFFFFF;}
	.st1{fill:none;}
	.st2{fill:#3E5389;}
</style>
</svg>
